<svg width="48px" height="48px" viewBox="0 0 48 48" version="1.1" xmlns="http://www.w3.org/2000/svg" xmlns:xlink="http://www.w3.org/1999/xlink" preserveAspectRatio="xMidYMid">
  <defs>
    <radialGradient cx="50%" cy="-50%" fx="50%" fy="-50%" r="99.999879%" id="radialGradient-1">
      <stop stop-color="#20C6B7" offset="0%"/>
      <stop stop-color="#4D9ABF" offset="100%"/>
    </radialGradient>
  </defs>
  <g>
    <path d="M34.787 16.657L34.77 16.65C34.76 16.646 34.75 16.642 34.741 16.633C34.712 16.602 34.699 16.559 34.706 16.517L35.674 10.601L40.217 15.14L35.493 17.148C35.48 17.153 35.466 17.156 35.451 17.155L35.433 17.155C35.426 17.152 35.42 17.147 35.408 17.134C35.232 16.939 35.021 16.777 34.787 16.657ZM41.377 16.297L46.234 21.149C47.243 22.158 47.748 22.661 47.932 23.245C47.96 23.331 47.982 23.417 48 23.506L36.391 18.595C36.385 18.593 36.379 18.59 36.373 18.588C36.326 18.569 36.272 18.548 36.272 18.5C36.272 18.452 36.327 18.43 36.374 18.411L36.389 18.405L41.377 16.297ZM47.802 25.063C47.551 25.534 47.063 26.022 46.235 26.85L40.759 32.319L33.676 30.846L33.638 30.838C33.575 30.828 33.509 30.817 33.509 30.761C33.455 30.171 33.157 29.63 32.688 29.267C32.659 29.238 32.667 29.193 32.675 29.152C32.675 29.146 32.675 29.139 32.678 29.134L34.01 20.965L34.015 20.937C34.023 20.875 34.034 20.802 34.09 20.802C34.667 20.73 35.191 20.431 35.544 19.97C35.555 19.957 35.563 19.943 35.578 19.936C35.618 19.917 35.666 19.936 35.707 19.953L47.801 25.063L47.802 25.063ZM39.499 33.577L30.494 42.573L32.035 33.109L32.038 33.097C32.039 33.084 32.041 33.072 32.045 33.06C32.058 33.03 32.09 33.018 32.122 33.005L32.137 32.999C32.474 32.855 32.773 32.633 33.008 32.352C33.038 32.317 33.074 32.283 33.12 32.277C33.132 32.275 33.145 32.275 33.157 32.277L39.498 33.579L39.499 33.577ZM28.587 44.477L27.572 45.491L16.35 29.29C16.346 29.284 16.341 29.278 16.337 29.272C16.32 29.248 16.301 29.225 16.305 29.197C16.306 29.177 16.318 29.16 16.332 29.144L16.345 29.128C16.378 29.078 16.407 29.028 16.439 28.974L16.464 28.93L16.467 28.927C16.485 28.897 16.501 28.868 16.531 28.852C16.558 28.839 16.594 28.844 16.623 28.85L29.056 31.412C29.091 31.417 29.124 31.431 29.151 31.453C29.168 31.469 29.171 31.487 29.175 31.507C29.351 32.171 29.828 32.715 30.464 32.978C30.499 32.995 30.484 33.034 30.467 33.075C30.459 33.093 30.453 33.112 30.448 33.132C30.292 34.083 28.948 42.268 28.587 44.477ZM26.467 46.594C25.719 47.334 25.278 47.726 24.779 47.883C24.287 48.039 23.759 48.039 23.267 47.883C22.683 47.698 22.178 47.195 21.17 46.186L9.899 34.928L12.843 30.368C12.857 30.345 12.871 30.325 12.893 30.309C12.925 30.286 12.97 30.296 13.007 30.309C13.683 30.512 14.408 30.476 15.06 30.205C15.094 30.192 15.128 30.184 15.154 30.207C15.167 30.219 15.179 30.233 15.189 30.247L26.467 46.595L26.467 46.594ZM8.813 33.843L6.227 31.26L11.333 29.084C11.346 29.079 11.36 29.076 11.374 29.076C11.417 29.076 11.442 29.118 11.465 29.157C11.516 29.236 11.57 29.313 11.627 29.387L11.644 29.407C11.659 29.429 11.649 29.45 11.634 29.47L8.814 33.843L8.813 33.843ZM5.083 30.117L1.812 26.85C1.256 26.294 0.852 25.891 0.571 25.544L10.517 27.605C10.53 27.607 10.542 27.609 10.555 27.611C10.616 27.621 10.684 27.632 10.684 27.69C10.684 27.752 10.61 27.781 10.547 27.805L10.518 27.818L5.083 30.117ZM0 23.864C0.011 23.654 0.049 23.445 0.113 23.245C0.298 22.661 0.802 22.158 1.812 21.149L5.998 16.968C7.925 19.762 9.858 22.552 11.795 25.339C11.829 25.384 11.867 25.434 11.828 25.472C11.645 25.673 11.462 25.893 11.333 26.133C11.319 26.163 11.297 26.19 11.27 26.21C11.254 26.22 11.236 26.216 11.218 26.213L11.215 26.213L0 23.863L0 23.864ZM7.118 15.849L12.747 10.226C13.275 10.458 15.2 11.271 16.922 11.997C18.226 12.547 19.414 13.048 19.787 13.211C19.825 13.226 19.859 13.241 19.875 13.278C19.885 13.301 19.88 13.33 19.875 13.354C19.694 14.178 19.94 15.038 20.53 15.642C20.568 15.68 20.53 15.733 20.498 15.78L20.48 15.806L14.766 24.648C14.751 24.673 14.737 24.694 14.712 24.71C14.682 24.729 14.639 24.72 14.604 24.712C14.382 24.654 14.153 24.622 13.923 24.619C13.718 24.619 13.495 24.657 13.269 24.698L13.268 24.698C13.243 24.702 13.22 24.707 13.2 24.692C13.178 24.674 13.159 24.652 13.144 24.628L7.118 15.849ZM13.883 9.091L21.17 1.813C22.178 0.805 22.683 0.301 23.267 0.117C23.759 -0.039 24.287 -0.039 24.779 0.117C25.363 0.301 25.868 0.805 26.877 1.813L28.456 3.39L23.274 11.407C23.261 11.43 23.243 11.451 23.222 11.467C23.191 11.488 23.147 11.48 23.11 11.467C22.28 11.216 21.38 11.389 20.703 11.93C20.67 11.965 20.619 11.945 20.577 11.926C19.9 11.632 14.636 9.41 13.883 9.091ZM29.556 4.489L34.341 9.269L33.188 16.402L33.188 16.421C33.187 16.437 33.184 16.453 33.178 16.468C33.166 16.493 33.14 16.498 33.115 16.506C32.869 16.58 32.637 16.696 32.429 16.848C32.42 16.854 32.411 16.861 32.404 16.869C32.39 16.884 32.376 16.898 32.353 16.9C32.335 16.901 32.317 16.898 32.3 16.891L25.008 13.797L24.994 13.791C24.948 13.772 24.893 13.749 24.893 13.702C24.85 13.296 24.717 12.904 24.504 12.556C24.469 12.499 24.43 12.439 24.461 12.38L29.556 4.489ZM24.628 15.263L31.464 18.154C31.501 18.172 31.543 18.188 31.559 18.227C31.565 18.25 31.565 18.275 31.559 18.298C31.539 18.399 31.521 18.512 31.521 18.628L31.521 18.819C31.521 18.867 31.472 18.887 31.427 18.906L31.413 18.911C30.331 19.373 16.212 25.386 16.19 25.386C16.169 25.386 16.147 25.386 16.125 25.365C16.088 25.328 16.125 25.275 16.159 25.227C16.165 25.219 16.171 25.211 16.177 25.202L21.794 16.515L21.804 16.5C21.836 16.447 21.874 16.388 21.934 16.388L21.99 16.397C22.118 16.414 22.231 16.431 22.345 16.431C23.197 16.431 23.987 16.016 24.463 15.308C24.474 15.289 24.489 15.272 24.506 15.258C24.54 15.233 24.59 15.245 24.628 15.263ZM16.801 26.761L32.19 20.205C32.19 20.205 32.213 20.205 32.234 20.226C32.318 20.31 32.39 20.366 32.459 20.419L32.493 20.44C32.524 20.458 32.555 20.478 32.558 20.51C32.558 20.523 32.558 20.53 32.555 20.542L31.237 28.631L31.232 28.664C31.223 28.726 31.214 28.798 31.155 28.798C30.442 28.846 29.798 29.243 29.435 29.858L29.428 29.868C29.411 29.897 29.395 29.924 29.366 29.939C29.339 29.952 29.306 29.947 29.278 29.941L17.005 27.412C16.993 27.409 16.815 26.762 16.801 26.761Z" fill="url(#radialGradient-1)" fill-rule="nonzero"/>
  </g>
</svg>
