<svg width="48px" height="48px" viewBox="0 0 48 48" xmlns="http://www.w3.org/2000/svg">
  <g fill="#00D8FF" fill-rule="evenodd">
    <path cx="11.996" cy="11.653" r="2.142" d="M28.276 23.306A4.284 4.284 0 0 1 23.992 27.59A4.284 4.284 0 0 1 19.708 23.306A4.284 4.284 0 0 1 28.276 23.306z"/>
    <path fill-rule="nonzero" d="M23.992 15.618C29.528 15.618 34.786 16.399 38.784 17.775C43.225 19.304 45.933 21.564 45.933 23.305C45.933 25.16 43.008 27.568 38.259 29.142C34.477 30.395 29.418 31.077 23.992 31.077C18.29 31.077 13.174 30.408 9.437 29.13C7.097 28.331 5.165 27.291 3.841 26.157C2.651 25.138 2.05 24.126 2.05 23.305C2.05 21.558 4.655 19.329 8.999 17.815C12.999 16.42 18.387 15.618 23.992 15.618L23.992 15.618L23.992 15.618L23.992 15.618L23.992 15.618M23.992 13.568C18.169 13.568 12.555 14.404 8.324 15.879C3.244 17.65 0 20.426 0 23.305C0 26.279 3.483 29.261 8.774 31.07C12.751 32.429 18.083 33.127 23.992 33.127C29.623 33.127 34.895 32.416 38.903 31.088C44.404 29.265 47.983 26.319 47.983 23.305C47.983 20.415 44.634 17.621 39.452 15.837C35.226 14.382 29.743 13.568 23.992 13.568L23.992 13.568L23.992 13.568L23.992 13.568L23.992 13.568M17.296 19.486C20.061 14.691 23.365 10.525 26.554 7.749C30.097 4.666 33.408 3.449 34.916 4.319C36.523 5.246 37.148 8.983 36.138 13.883C35.334 17.784 33.399 22.508 30.687 27.209C27.839 32.148 24.704 36.245 21.73 38.845C19.868 40.472 18.003 41.627 16.358 42.207C14.881 42.729 13.704 42.744 12.993 42.334C11.479 41.461 10.85 38.091 11.709 33.571C12.499 29.41 14.495 24.342 17.296 19.486L17.296 19.486L17.296 19.486L17.296 19.486L17.296 19.486M15.52 18.462C12.611 23.507 10.531 28.787 9.695 33.189C8.691 38.474 9.475 42.671 11.969 44.11C14.545 45.595 18.869 44.068 23.079 40.388C26.244 37.622 29.511 33.352 32.463 28.233C35.276 23.355 37.294 18.433 38.146 14.297C39.315 8.621 38.551 4.049 35.94 2.543C33.437 1.1 29.343 2.605 25.209 6.203C21.837 9.137 18.393 13.48 15.52 18.462L15.52 18.462L15.52 18.462L15.52 18.462L15.52 18.462M17.302 27.22C14.528 22.429 12.569 17.487 11.757 13.337C10.855 8.729 11.454 5.252 12.961 4.38C14.567 3.451 18.116 4.776 21.858 8.098C24.836 10.742 27.962 14.778 30.681 19.475C33.537 24.409 35.521 29.172 36.288 33.047C36.768 35.472 36.837 37.665 36.519 39.38C36.233 40.92 35.658 41.947 34.948 42.358C33.436 43.234 30.202 42.096 26.714 39.095C23.504 36.332 20.11 32.071 17.302 27.22L17.302 27.22L17.302 27.22L17.302 27.22L17.302 27.22M15.528 28.247C18.446 33.287 21.981 37.726 25.377 40.649C29.455 44.158 33.483 45.575 35.975 44.132C38.548 42.643 39.385 38.134 38.299 32.649C37.483 28.525 35.415 23.562 32.455 18.448C29.633 13.574 26.376 9.369 23.219 6.565C18.886 2.717 14.542 1.096 11.934 2.606C9.434 4.054 8.693 8.352 9.746 13.731C10.604 18.117 12.646 23.27 15.528 28.247L15.528 28.247L15.528 28.247L15.528 28.247L15.528 28.247"/>
  </g>
</svg>
